<svg width="160" height="49" viewBox="0 0 160 49" fill="none" xmlns="http://www.w3.org/2000/svg">
<path fill-rule="evenodd" clip-rule="evenodd" d="M146.439 0.9964H132.075L132.063 0.990234V1.44122V24.2569C132.016 26.6259 132.582 28.9669 133.706 31.0528C136.369 35.8284 140.44 38.4603 145.92 38.6209C149.137 38.7166 152.354 38.696 155.571 38.6754H155.572C156.926 38.6667 158.281 38.658 159.635 38.658C159.758 38.6527 159.879 38.6403 160 38.6209V31.9053C159.447 31.9053 158.899 31.9088 158.354 31.9123H158.354H158.354C157.273 31.9191 156.206 31.9259 155.138 31.9053C153.166 31.9264 151.241 31.3015 149.658 30.1261C147.421 28.3962 146.55 26.0053 146.476 23.2807C146.447 21.9836 146.457 20.6892 146.467 19.3938C146.471 18.7458 146.476 18.0976 146.476 17.4486V16.9359H159.981V10.2079H146.439V0.9964ZM126.886 16.9546V10.2205L126.224 10.202H105.219C104.348 10.2041 103.478 10.2743 102.618 10.412C99.0496 10.9742 95.8293 12.8743 93.6119 15.7261C91.3944 18.5778 90.3464 22.1671 90.6808 25.764C91.0152 29.3609 92.707 32.6954 95.4122 35.0894C98.1174 37.4835 101.633 38.7574 105.244 38.652C109.935 38.6273 114.626 38.6355 119.317 38.6438C121.663 38.6479 124.009 38.652 126.354 38.652H126.873V31.8994H126.305H112.985C112.334 31.8995 111.684 31.8375 111.045 31.714C109.123 31.3093 107.438 30.1633 106.356 28.5245C105.273 26.8857 104.88 24.8862 105.262 22.9597C105.617 21.2577 106.548 19.7305 107.899 18.6362C109.25 17.542 110.937 16.948 112.676 16.9546H126.886ZM40.7383 20.9459C39.9646 17.8603 38.1754 15.1247 35.6585 13.1793C33.1415 11.2339 30.0433 10.1918 26.8623 10.2208C25.505 10.2208 24.1476 10.2173 22.7905 10.2139H22.7904C20.0769 10.207 17.3643 10.2002 14.6544 10.2208C13.4527 10.2315 12.2549 10.3577 11.0773 10.5976C7.95834 11.2886 5.16539 13.0157 3.15377 15.4974C1.14215 17.9791 0.030488 21.0691 0 24.2635V47.629V48.2469H12.6527V31.4548H12.7516C12.7921 31.5059 12.8293 31.5595 12.8628 31.6154C17.0021 38.3125 22.7106 40.0053 29.5003 38.9179C32.7237 38.372 35.6262 36.6398 37.6369 34.062C40.7939 30.213 41.9615 25.8204 40.7259 20.9583L40.7383 20.9459ZM20.6163 31.9058C19.138 31.9046 17.6933 31.4651 16.4648 30.643C15.2363 29.8208 14.2791 28.6529 13.7142 27.2868C13.1494 25.9207 13.0022 24.4179 13.2914 22.9682C13.5805 21.5185 14.293 20.187 15.3387 19.1422C16.3844 18.0973 17.7164 17.386 19.1663 17.098C20.6163 16.8101 22.119 16.9585 23.4846 17.5245C24.8502 18.0905 26.0174 19.0486 26.8385 20.2778C27.6597 21.507 28.0979 22.9521 28.0979 24.4304C28.0947 26.4098 27.3077 28.3075 25.9092 29.7083C24.5106 31.1092 22.6143 31.8993 20.6348 31.9058H20.6163ZM79.9938 12.5369C84.1455 15.3355 86.3572 19.2586 86.4375 24.2752L86.4746 24.2876C86.5117 27.3398 86.4993 30.3892 86.487 33.4378C86.4808 34.9617 86.4746 36.4854 86.4746 38.0091V38.6269H73.8343V31.4974L73.7169 31.4665C73.6508 31.5703 73.5856 31.6751 73.5203 31.78C73.4147 31.9498 73.3086 32.1202 73.1979 32.2882C71.1795 35.5133 68.0101 37.85 64.3324 38.8246C62.3667 39.2662 60.3403 39.3707 58.3396 39.1335C51.7538 38.596 46.6569 33.2643 45.4892 27.0862C44.8127 23.4853 45.5533 19.7622 47.5564 16.6943C49.5595 13.6264 52.6702 11.4507 56.2391 10.6216C57.4146 10.3665 58.6134 10.2339 59.8162 10.2262C62.5385 10.2015 65.2634 10.2098 67.9893 10.218C69.3526 10.2221 70.7162 10.2262 72.0797 10.2262C74.8904 10.1803 77.6493 10.9858 79.9938 12.5369ZM61.7002 30.6281C62.9253 31.4616 64.3704 31.9125 65.8522 31.9237C67.8236 31.9241 69.7168 31.1521 71.1258 29.7732C72.5348 28.3942 73.3474 26.5181 73.3894 24.5471C73.4102 23.0654 72.9905 21.6109 72.1836 20.3681C71.3767 19.1253 70.2189 18.15 68.857 17.5661C67.4952 16.9821 65.9905 16.8157 64.534 17.0879C63.0774 17.3601 61.7345 18.0588 60.6755 19.0952C59.6164 20.1317 58.8891 21.4592 58.5855 22.9096C58.282 24.36 58.4159 25.8678 58.9705 27.242C59.525 28.6161 60.475 29.7946 61.7002 30.6281Z" fill="black"/>
</svg>
